<?xml version="1.0" encoding="UTF-8"?>
<svg width="22px" height="22px" viewBox="0 0 22 22" version="1.1" xmlns="http://www.w3.org/2000/svg" xmlns:xlink="http://www.w3.org/1999/xlink">
    <!-- Generator: Sketch 50.2 (55047) - http://www.bohemiancoding.com/sketch -->
    <title>Group 15</title>
    <desc>Created with Sketch.</desc>
    <defs></defs>
    <g id="Page-1" stroke="none" stroke-width="1" fill="none" fill-rule="evenodd">
        <g id="Поиск-2" transform="translate(-710.000000, -138.000000)" fill="#2C3E50" fill-rule="nonzero">
            <g id="Group-15" transform="translate(710.000000, 138.000000)">
                <g id="Group-28-Copy">
                    <path d="M11,0 C10.4793047,0 10.0571429,0.513224637 10.0571429,1.14634448 L10.0571429,5.13936981 C10.0571429,5.77248965 10.4792651,6.28571429 11,6.28571429 C11.5207349,6.28571429 11.9428571,5.77253778 11.9428571,5.13936981 L11.9428571,1.14634448 C11.9428571,0.513272768 11.5206953,0 11,0 Z" id="Shape" opacity="0.200000003"></path>
                    <path d="M7.84142658,6.24796207 L5.06630174,3.47285681 C4.62629908,3.03285725 3.91290911,3.03285725 3.47285914,3.47285681 C3.03285648,3.91285637 3.03285648,4.62624131 3.47285914,5.06624086 L6.24803128,7.84139342 C6.68803394,8.28144029 7.40142391,8.28144029 7.84142658,7.84139342 C8.28142924,7.40134656 8.28142924,6.68796162 7.84142658,6.24796207 Z" id="Shape" opacity="0.100000001"></path>
                    <path d="M5.13937859,10.0571429 L1.1463357,10.0571429 C0.513220707,10.0571429 0,10.4792651 0,11 C0,11.5207349 0.513220707,11.9428571 1.1463357,11.9428571 L5.13937859,11.9428571 C5.77249358,11.9428571 6.28571429,11.5207349 6.28571429,11 C6.28566615,10.4792651 5.77244545,10.0571429 5.13937859,10.0571429 Z" id="Shape" opacity="0.800000012"></path>
                    <path d="M7.84142658,14.1586066 C7.40142391,13.7185597 6.68803394,13.7185597 6.24803128,14.1586066 L3.47285914,16.9337591 C3.03285648,17.3737587 3.03285648,18.0871436 3.47285914,18.5271432 C3.91290911,18.9671427 4.62629908,18.9671427 5.06630174,18.5271432 L7.84142658,15.7520379 C8.28142924,15.3120384 8.28142924,14.5986534 7.84142658,14.1586066 Z" id="Shape" opacity="0.699999988"></path>
                    <path d="M11,15.7142857 C10.4793047,15.7142857 10.0571429,16.2275104 10.0571429,16.8606302 L10.0571429,20.8536555 C10.0571429,21.4867754 10.4792651,22 11,22 C11.5207349,22 11.9428571,21.4867754 11.9428571,20.8536555 L11.9428571,16.8606302 C11.9428571,16.2275585 11.5206953,15.7142857 11,15.7142857 Z" id="Shape" opacity="0.600000024"></path>
                    <path d="M18.5271409,16.9337591 L15.752016,14.1586066 C15.3119661,13.7185597 14.5986234,13.7185597 14.1585734,14.1586066 C13.7185708,14.5986534 13.7185708,15.3120384 14.1585734,15.7520379 L16.9337456,18.5271432 C17.3737482,18.9671427 18.0871382,18.9671427 18.5271409,18.5271432 C18.9671435,18.0871436 18.9671435,17.3737114 18.5271409,16.9337591 Z" id="Shape" opacity="0.5"></path>
                    <path d="M20.8536731,10.0571429 L16.8606608,10.0571429 C16.2275506,10.0571429 15.7142857,10.4792255 15.7142857,11 C15.7142857,11.5207349 16.2275025,11.9428571 16.8606608,11.9428571 L20.8536731,11.9428571 C21.4867832,11.9428571 22,11.5207349 22,11 C21.9999519,10.4792651 21.4867351,10.0571429 20.8536731,10.0571429 Z" id="Shape" opacity="0.400000006"></path>
                    <path d="M18.5271409,3.47285681 C18.0871382,3.03285725 17.3737482,3.03285725 16.9337456,3.47285681 L14.1585734,6.24796207 C13.7185708,6.68796162 13.7185708,7.40134656 14.1585734,7.84139342 C14.5986234,8.28144029 15.3119661,8.28144029 15.752016,7.84139342 L18.5271409,5.06624086 C18.9671435,4.62624131 18.9671435,3.91285637 18.5271409,3.47285681 Z" id="Shape" opacity="0.300000012"></path>
                </g>
            </g>
        </g>
    </g>
</svg>